<svg data-name="Layer 1" viewBox="0 0 129.32 103.79">
  <path d="M118.77 71.93s-4.29-.15-4.29 5.06c0 1.69 1.23 3.22 1.69 4.75s-1.69.77-2.76.77h-.49c-.23-9.12-1.25-29-1.51-32.52-.28-3.8-1.47-22.42-1.77-26.34a1.18 1.18 0 0 1 .53-1.09c.77-.5 1.72-1 2.09-1.24 1.75-.89 6.14 5.77 7.76 4.15 1.34-1.35-5.28-5.41-5.77-6.63-.35-.87 8.17-3.17 7.85-4.92-.36-1.91-8.34 3.38-9.23 2.08-.21-.31 4.88-3.25 5.69-4.11s.41-1.26-.45-1.3-4.43 3.17-5.44 3.25c-1.42.12 6.3-7.39 5.08-8.33-.42-.32-4.19 2.8-4.31 2.44-.07-.21 3.7-4.67 2.8-5.89s-6.19 6.76-6.46 6.7c-.53-.12 1.71-5.53.53-6.38s-2.52 6.5-3 6.5.37-8.65-1.22-8.77c-.94-.08-1.13 8.53-1.7 8.37S101 .29 99.74.94c-.75.37 0 2.19.41 2.88s2.8 6.91 2.11 6.91-4.92-6.05-5.48-6.58-1.1 0-.33 1.3 4.35 6.42 3.82 6.75-6-4.27-6.62-2.93c-.37.81 7.35 5.77 7.47 7.23 0 .46-.36.78-.89.49S96 14.11 93 13.54s-4.31 0-4.31.73.85 1.3 1.42 1.38c1 .15 8.71 2.15 8.33 2.4-.93.61-4.35 1.22-5.48 1.95-1 .61-3.7 2.19-3.21 2.93s1.38.2 1.95.16 4.1-1.91 4.87-2.12 2.43-.24 2.43.13-1.83 1-3.13 1.87-4 5.08-4.14 5.85.4.85.85.85 4.72-5.36 5.05-5.67 3.21-1.95 3.21-1.42-3.33 3.29-4.27 4.76-2.84 5.4-2.15 6.13 1.38 0 1.71-.2 3.86-6.91 5.16-8.09c1.13-1 3.06-1 4.56-.93.45 3.13.89 6.24 1 6.89.14 1.28 1.21 39.51 1.23 52.07-2.19.29-4.35.31-5.65-.94-.76-.73-1.3-1.65-2.05-2.38a10 10 0 0 0-3-1.87 3.55 3.55 0 0 1-1.43-.91c-.72-.91-.49-2.21-1.34-3.07a2.21 2.21 0 0 0-.29-.22s-1.47-10.36-1.64-12.1c1.49-3.46 8.63-6.2 10.31-7.11s1.61-2.17.23-2.32-6.81 3.31-7.22 2.29c-.27-.62 6.46-5.93 5.57-6.58-3.46-2.51-9.43 7.38-10 7.22s.34-5.62-.12-6.69-2.64-2.35-3.72-1.43 1.69 6.13.92 6.28-4.88-3.47-6-2.6c-.77.61-.29 1.81.46 2.45 1 .87 4.41 3.31 6 6l.99 13.25a19.39 19.39 0 0 0-3.37-.55c-1.53 0-6.28-.46-11.49-.46s-3.68 2.46-4.6 2.46-9.51-6.14-10.27-3.22c-.37 1.4 5.67 5.51 5.21 6s-9.2-2.14-9-.61 7.81 3.37 7.2 4.6-5.82.77-7.66.77-17 2.3-22.69 2.3-10.27 4-11.8 4-2.3-2.14-4.6-2.14h-6.17V60.74H.12v42.92H129.2V71.93Z"/>
</svg>
