<svg xml:space="preserve" viewBox="0 0 85.2 82.9">
  <path fill="none" d="M82.3 56.1c-.5-.4.4-2.6.4-4.2 0-1.7-.4-32.6-.4-32.6s.5-.3 1.3-1 2.1-3.3 1.5-3.3c-.6.1-2.2.2-2.2-.4 0-.6 2.3-8.1 1.7-8.2s-2.4 2.2-2.7 2c-.3-.2 1.4-4.5.6-4.6-.7-.1-1.8 3.2-2.4 3.1S77.4-.2 76.5 0c-.9.2 1 5.9.8 6.4s-7.5-.8-7.7.5 6.1 1.8 5.9 2.6c-.2.8-8.7.6-8.4 1.7.3 1.1 8.1.8 8.1 1.5-4 .5-12.6 6.2-11.5 8.1.5.9 6.1-2.2 6.4-1.6.1.1-5.5 7.6-3.7 8.5 1.1.5 6.6-9.4 7.8-8.4.6.5-3.1 5.4-2.3 6.2.6.5 3.5-3.5 4-3.9 1-.9 2.7-.3 2.7-.3s1.4 28.6-1 28.7c-1.3.1-2.2-8.7-3.6-8.1-.9.4.5 5.7 0 6.4s-1.9 1.1-3.3 0S66.4 44 66 45c-.3 1 1.7 3.8 1.5 4.6-.2.8-3.5-1.8-3.8-.5s4.6 4.6 4.6 5.8-2 .7-2.5 1.7 1.5 2.2 1.3 2.8-5.5.8-5.5 1.8 5 1.3 6.6 1.8c1.2.4 2.4 1.5 3 3.1H55.4l-.8-1.6c-.4-.8-1.2-1.3-2.1-1.3H3.4c3-3.9 9.4-12.4 8.4-12.8-1.3-.5-5.1 4.1-5.8 4-.7-.2 5.5-9.8 4.1-10.6-1.3-.9-6.1 8.2-6.8 8.1-.7-.2 1.2-7.3.2-7.5S0 51.7 0 51.7v31.1h84.9V56.5s-2.1-.1-2.6-.4z"/>
</svg>
