<svg id="Layer_1" data-name="Layer 1" xmlns="http://www.w3.org/2000/svg" viewBox="0 0 32 32"><path d="M5.34,9c.3-.64.8-.57,1.26-.55a7.37,7.37,0,0,0,3-.44,2.51,2.51,0,0,1,2,.11A3.77,3.77,0,0,0,15,8.28a3.41,3.41,0,0,1,3.56.33,1.77,1.77,0,0,0,2,.14c.13-.06.27-.07.4-.12,2.27-.91,2.34-1,2.33-3.48,0-.89,0-1.78,0-2.67a1.22,1.22,0,0,1,.9-1.28c.5.51,0,1.39.72,1.78s1.63-.09,2.56.4c-.73,1.83-1.9,3.39-2.62,5.18.27.76.95,1.3,1.05,2.21a3.45,3.45,0,0,1-.21,2.28,1.46,1.46,0,0,0,.12,1.58,2.24,2.24,0,0,1,.38,1.94c-.24.87.22,1.9-.64,2.57a6.46,6.46,0,0,1,.1,5.39c.7.78.52,1.83.44,2.84A2.26,2.26,0,0,1,24.82,29c-.73.47-1.11.37-1.59-.39-.15-.23-.23-.52-.49-.67-1-.15-1.18.72-1.63,1.3-1.22.05-2.43.29-3.48-.63a.89.89,0,0,0-1.17.06,3.85,3.85,0,0,1-3.94.41,3.58,3.58,0,0,0-3,.05A2.92,2.92,0,0,1,8,29.22a1.15,1.15,0,0,1-1-.6A5.86,5.86,0,0,0,5.71,27a1,1,0,0,1-.4-.72c0-.55-.35-1-.51-1.47l1-2.26c-.3-.74-.56-1.49-.91-2.19a3.08,3.08,0,0,1,.11-3,2.3,2.3,0,0,0,0-2.27,2,2,0,0,1,.13-2.2A3.08,3.08,0,0,0,5.34,9Z"/></svg>