<svg id="Layer_1" data-name="Layer 1" xmlns="http://www.w3.org/2000/svg" viewBox="0 0 32 32"><path d="M16,7.39c-.69,0-1.9-6-2.56-5.94s.25,6.23-.38,6.46-3.86-5-4.45-4.7S11,9,10.47,9.41,5.12,6,4.69,6.5s4.2,4.61,3.85,5.2S2.35,10.3,2.12,11s5.52,2.87,5.4,3.55-6.29.81-6.29,1.5,6.18.84,6.29,1.5-5.63,2.92-5.4,3.55,6.09-1.33,6.42-.75S4.25,25,4.69,25.5s5.26-3.34,5.78-2.91S8,28.45,8.61,28.79s3.8-4.93,4.45-4.7-.3,6.34.38,6.46,1.87-5.94,2.56-5.94,1.9,6.05,2.56,5.94-.25-6.23.38-6.46,3.86,5,4.45,4.7S21,23,21.53,22.59,26.88,26,27.31,25.5s-4.2-4.61-3.85-5.2,6.19,1.4,6.42.75-5.52-2.87-5.4-3.55,6.29-.81,6.29-1.5-6.18-.84-6.29-1.5,5.63-2.92,5.4-3.55-6.09,1.33-6.42.75S27.75,7,27.31,6.5s-5.26,3.34-5.78,2.91S24,3.55,23.39,3.21s-3.8,4.93-4.45,4.7.3-6.34-.38-6.46S16.69,7.39,16,7.39Z"/></svg>