<svg id="Layer_1" data-name="Layer 1" xmlns="http://www.w3.org/2000/svg" viewBox="0 0 400.48 753.02"><path d="M204.73,0c-66.91,0-74.9,62.92-96.87,90.88C89.9,113.75,22,164.34,22,203.74c0,49.76,49.94,111,49.94,148.8C71.91,415.46,0,456.41,0,518.33c0,37.95,93.88,87.88,106.86,144.81,8,41,28,89.88,86.89,89.88,87.88,0,113.08-120.76,118.84-143.81,11.53-47.25,87.89-46.94,87.89-117.85,0-55.92-44.94-84.68-44.94-119.84,0-54.14,42.94-74.3,42.94-144.81,0-43-46.73-60.72-68.91-82.9C286.63,100.87,310.6,0,204.73,0Z" fill="#231f20"/></svg>