<svg id="Layer_1" data-name="Layer 1" xmlns="http://www.w3.org/2000/svg" viewBox="0 0 907.83 1304.93"><path d="M465.22,0C284.65,0,175.81,159.07,175.81,221S18.42,373.3,18.42,452.09c0,55.12,57.49,137,57.49,176.37C75.91,692.48,0,775,0,838.32c0,75.91,125.58,132.84,142.33,209.86,0,65.8,154,256.75,317.58,256.75,246.69,0,307-166.33,307-199.82,13.82-55.88,29.64-105.08,51.91-137.3,37.12-53.7,80.93-78.07,80.93-138.42,1.12-101-51.35-112.74-51.35-183.07,0-108.29,59.46-124.3,59.46-200.65,0-81.75-103-119.75-130.35-195.31C749.2,162.86,669.66,0,465.22,0Z" fill="#231f20"/></svg>