<svg id="Layer_1" data-name="Layer 1" xmlns="http://www.w3.org/2000/svg" viewBox="0 0 634.38 1037.07"><path d="M344,0C231.2,0,185.87,97.61,166.35,138.15,148,176.22,11.51,266,11.51,323.19c0,72.31,82.94,118.06,82.94,173C94.45,552.62,0,617.47,0,690.77c0,55.14,118.94,102,131.11,157.9,0,47.79,83.84,188.4,202.62,188.4,163.55,0,178.62-171.11,187-204.6,16.75-68.65,111.35-86.23,111.35-161.58,0-57.77-50.22-94.64-50.22-145.72,0-78.66,52.53-97.07,52.53-199.52,0-43.79-73.19-94.58-92.73-128.62S515.42,0,344,0Z" fill="#231f20"/></svg>