<svg id="Layer_1" data-name="Layer 1" xmlns="http://www.w3.org/2000/svg" viewBox="0 0 1228.19 1678.64"><path d="M611.93,0C261.09,0,112.07,264.78,112.07,446.77c0,73.67-107.16,100.47-107.16,204.28,0,72.62,65.45,125,65.45,176.86,0,84.35-70.36,113-70.36,196.43,0,100,116.35,141.31,116.35,251.08,0,86.7,121.3,403.22,483.13,403.22,415.1,0,514.93-312.19,514.93-408.85,0-127.3,113.78-146,113.78-242.69,0-82.14-69.31-128.47-69.31-196.29,0-49.8,69.23-101.71,69.23-185.5,0-74.93-113.9-150.82-113.9-232.87C1114.21,276,971,0,611.93,0Z" fill="#231f20"/></svg>